<?xml version="1.0" standalone="no"?><!DOCTYPE svg PUBLIC "-//W3C//DTD SVG 1.1//EN" "http://www.w3.org/Graphics/SVG/1.1/DTD/svg11.dtd"><svg t="1626331187909" class="icon" viewBox="0 0 1024 1024" version="1.1" xmlns="http://www.w3.org/2000/svg" p-id="2951" xmlns:xlink="http://www.w3.org/1999/xlink" width="200" height="200"><defs><style type="text/css"></style></defs><path d="M795.7504 444.416H614.7072c70.144-259.072-48.3328-272.384-48.3328-272.384-50.176 0-39.8336 39.7312-43.6224 46.2848C522.752 345.088 388.1984 444.416 388.1984 444.416v359.3216c0 35.4304 48.3328 48.2304 67.2768 48.2304h272.0768c25.6 0 46.4896-67.1744 46.4896-67.1744 67.2768-228.864 67.2768-296.96 67.2768-296.96 0-47.2064-45.568-43.4176-45.568-43.4176z m0 0M313.856 444.5184H205.4144c-22.4256 0-22.7328 22.016-22.7328 22.016l22.4256 362.3936c0 23.04 23.1424 23.04 23.1424 23.04h93.7984c19.5584 0 19.3536-15.2576 19.3536-15.2576V471.9616c0-27.8528-27.5456-27.4432-27.5456-27.4432z m0 0" p-id="2952" fill="#d81e06"></path></svg>