<?xml version="1.0" standalone="no"?><!DOCTYPE svg PUBLIC "-//W3C//DTD SVG 1.1//EN" "http://www.w3.org/Graphics/SVG/1.1/DTD/svg11.dtd"><svg class="icon" width="200px" height="200.00px" viewBox="0 0 1024 1024" version="1.1" xmlns="http://www.w3.org/2000/svg"><path fill="#000000" d="M512 64c247.424 0 448 200.576 448 448S759.424 960 512 960 64 759.424 64 512 264.576 64 512 64zM132 512c0 209.868 170.132 380 380 380 92.721 0 177.686-33.209 243.65-88.38L220.986 267.628C165.45 333.694 132 418.94 132 512z m380-380c-92.325 0-176.96 32.925-242.803 87.674l534.526 535.851C858.833 689.58 892 604.663 892 512c0-209.868-170.132-380-380-380z" /></svg>