<?xml version="1.0" standalone="no"?><!DOCTYPE svg PUBLIC "-//W3C//DTD SVG 1.1//EN" "http://www.w3.org/Graphics/SVG/1.1/DTD/svg11.dtd"><svg class="icon" width="200px" height="200.00px" viewBox="0 0 1024 1024" version="1.1" xmlns="http://www.w3.org/2000/svg"><path fill="#000000" d="M853.333333 401.066667c-2.133333-89.6-36.266667-172.8-100.266666-234.666667-64-64-149.333333-100.266667-241.066667-100.266667-183.466667 0-332.8 147.2-337.066667 332.8-49.066667 17.066667-83.2 64-83.2 117.333334v106.666666c0 68.266667 55.466667 125.866667 125.866667 125.866667h34.133333c14.933333 0 25.6-12.8 25.6-25.6V418.133333c0-14.933333-12.8-25.6-25.6-25.6h-23.466666c8.533333-151.466667 132.266667-270.933333 285.866666-270.933333 76.8 0 149.333333 29.866667 202.666667 83.2 51.2 51.2 78.933333 117.333333 83.2 189.866667h-25.6c-14.933333 0-25.6 12.8-25.6 25.6v302.933333c0 14.933333 12.8 25.6 25.6 25.6h8.533333c-27.733333 78.933333-87.466667 123.733333-189.866666 136.533333-2.133333-8.533333-10.666667-17.066667-21.333334-17.066666h-96c-12.8 0-21.333333 10.666667-21.333333 21.333333v46.933333c0 12.8 10.666667 21.333333 21.333333 21.333334h96c10.666667 0 19.2-8.533333 21.333334-19.2 134.4-17.066667 215.466667-81.066667 247.466666-194.133334 53.333333-14.933333 93.866667-61.866667 93.866667-119.466666v-106.666667c-2.133333-53.333333-34.133333-98.133333-81.066667-117.333333zM224 693.333333h-8.533333c-40.533333 0-72.533333-32-72.533334-72.533333v-106.666667c0-36.266667 25.6-64 59.733334-70.4h19.2v249.6z m654.933333-70.4c0 36.266667-27.733333 66.133333-64 70.4h-17.066666V445.866667h8.533333c4.266667 0 8.533333 0 14.933333 2.133333 34.133333 6.4 57.6 36.266667 57.6 70.4v104.533333z"  /></svg>