<?xml version="1.0" standalone="no"?><!DOCTYPE svg PUBLIC "-//W3C//DTD SVG 1.1//EN" "http://www.w3.org/Graphics/SVG/1.1/DTD/svg11.dtd"><svg t="1625991701221" class="icon" viewBox="0 0 1024 1024" version="1.1" xmlns="http://www.w3.org/2000/svg" p-id="1942" xmlns:xlink="http://www.w3.org/1999/xlink" width="200" height="200"><defs><style type="text/css"></style></defs><path d="M887.6 337.59A449.48 449.48 0 1 0 922.82 512a446.56 446.56 0 0 0-35.22-174.41zM474.76 910.06C255.27 910.06 76.69 731.49 76.69 512s178.58-398.06 398.07-398.06S872.82 292.51 872.82 512 694.25 910.06 474.76 910.06z" p-id="1943"></path><path d="M499.86 216.23a25 25 0 0 0-50 0v306.28a25 25 0 0 0 25 25h327.53a25 25 0 1 0 0-50H499.86z" p-id="1944"></path></svg>