<?xml version="1.0" standalone="no"?><!DOCTYPE svg PUBLIC "-//W3C//DTD SVG 1.1//EN" "http://www.w3.org/Graphics/SVG/1.1/DTD/svg11.dtd"><svg class="icon" width="200px" height="200.00px" viewBox="0 0 1024 1024" version="1.1" xmlns="http://www.w3.org/2000/svg"><path fill="#000000" d="M699.61 476.75m-46.12 0a46.12 46.12 0 1 0 92.24 0 46.12 46.12 0 1 0-92.24 0Z"  /><path fill="#000000" d="M509.57 430.63c-25.43 0-46.12 20.69-46.12 46.12 0 25.43 20.69 46.12 46.12 46.12 25.43 0 46.11-20.69 46.11-46.12 0.01-25.43-20.68-46.12-46.11-46.12z"  /><path fill="#000000" d="M319.54 476.75m-46.12 0a46.12 46.12 0 1 0 92.24 0 46.12 46.12 0 1 0-92.24 0Z"  /><path fill="#000000" d="M512 115.71c-231.59 0-420 161.81-420 360.7 0 102.65 50.86 200.35 139.72 268.73 1.83 12.28-2.45 52.39-22.16 123.48-3.45 12.46 0.99 25.54 11.3 33.33 5.59 4.21 12.18 6.34 18.81 6.34 5.61 0 11.24-1.53 16.3-4.61 86.01-52.44 139.43-76.75 153.29-77.42 33.43 7.21 67.99 10.86 102.74 10.86 231.59 0 420-161.81 420-360.71 0-198.89-188.41-360.7-420-360.7z m0 672c-31.59 0-62.97-3.35-93.27-9.96-10.29-2.21-32.99-7.19-150.43 61.06 25.71-108.64 7.97-121.97-3.1-130.28-78.67-59.09-123.78-143.69-123.78-232.11 0-171.64 166.25-311.29 370.59-311.29S882.6 304.78 882.6 476.42c-0.01 171.64-166.26 311.29-370.6 311.29z"  /></svg>